<?xml version="1.0" encoding="UTF-8" standalone="no"?>
<svg
   width="22.776"
   height="11.572"
   viewBox="0 0 22.776 11.572"
   version="1.1"
   id="svg1"
   sodipodi:docname="ham-nav.svg"
   inkscape:version="1.4 (e7c3feb100, 2024-10-09)"
   xmlns:inkscape="http://www.inkscape.org/namespaces/inkscape"
   xmlns:sodipodi="http://sodipodi.sourceforge.net/DTD/sodipodi-0.dtd"
   xmlns="http://www.w3.org/2000/svg"
   xmlns:svg="http://www.w3.org/2000/svg">
  <sodipodi:namedview
     id="namedview1"
     pagecolor="#ffffff"
     bordercolor="#000000"
     borderopacity="0.25"
     inkscape:showpageshadow="2"
     inkscape:pageopacity="0.0"
     inkscape:pagecheckerboard="0"
     inkscape:deskcolor="#d1d1d1"
     inkscape:zoom="46.803655"
     inkscape:cx="11.388"
     inkscape:cy="5.7901461"
     inkscape:window-width="1920"
     inkscape:window-height="1011"
     inkscape:window-x="0"
     inkscape:window-y="0"
     inkscape:window-maximized="1"
     inkscape:current-layer="svg1" />
  <defs
     id="defs1">
    <style
       id="style1">
      .cls-1 {
        fill: #fff;
      }
    </style>
  </defs>
  <g
     id="ham-nav-01"
     transform="translate(-19.38 -16.02)"
     style="fill:#4318ff;fill-opacity:1">
    <path
       id="Path_21"
       data-name="Path 21"
       class="cls-1"
       d="M41.235,20.328H20.126a.743.743,0,0,1-.746-.746V16.766a.743.743,0,0,1,.746-.746H41.235a.743.743,0,0,1,.746.746v2.817A.748.748,0,0,1,41.235,20.328Z"
       transform="translate(0 0)"
       style="fill:#4318ff;fill-opacity:1" />
    <path
       id="Path_22"
       data-name="Path 22"
       class="cls-1"
       d="M41.425,28.218H20.316a.743.743,0,0,1-.746-.746V24.656a.743.743,0,0,1,.746-.746H41.425a.743.743,0,0,1,.746.746v2.817A.743.743,0,0,1,41.425,28.218Z"
       transform="translate(-0.015 -0.626)"
       style="fill:#4318ff;fill-opacity:1" />
  </g>
</svg>
