<?xml version="1.0" encoding="utf-8"?>
<!-- Generator: Adobe Illustrator 24.0.0, SVG Export Plug-In . SVG Version: 6.00 Build 0)  -->
<svg version="1.1" id="Layer_1" xmlns="http://www.w3.org/2000/svg" xmlns:xlink="http://www.w3.org/1999/xlink" x="0px" y="0px"
	 viewBox="0 0 24 24" style="enable-background:new 0 0 24 24;" xml:space="preserve">
<style type="text/css">
	.st0{fill:#FFFFFF;}
</style>
<path class="st0" d="M6,19h3v-5c0-0.3,0.1-0.5,0.3-0.7C9.5,13.1,9.7,13,10,13h4c0.3,0,0.5,0.1,0.7,0.3c0.2,0.2,0.3,0.4,0.3,0.7v5h3
	v-9l-6-4.5L6,10V19z M4,19v-9c0-0.3,0.1-0.6,0.2-0.9s0.3-0.5,0.6-0.7l6-4.5c0.4-0.3,0.8-0.4,1.2-0.4s0.9,0.1,1.2,0.4l6,4.5
	c0.3,0.2,0.4,0.4,0.6,0.7S20,9.7,20,10v9c0,0.5-0.2,1-0.6,1.4S18.6,21,18,21h-4c-0.3,0-0.5-0.1-0.7-0.3C13.1,20.5,13,20.3,13,20v-5
	h-2v5c0,0.3-0.1,0.5-0.3,0.7C10.5,20.9,10.3,21,10,21H6c-0.5,0-1-0.2-1.4-0.6S4,19.5,4,19z"/>
</svg>
