<?xml version="1.0" encoding="utf-8"?>
<!-- Generator: Adobe Illustrator 24.0.0, SVG Export Plug-In . SVG Version: 6.00 Build 0)  -->
<svg version="1.1" id="Layer_1" xmlns="http://www.w3.org/2000/svg" xmlns:xlink="http://www.w3.org/1999/xlink" x="0px" y="0px"
	 viewBox="0 0 23 23.3" style="enable-background:new 0 0 23 23.3;" xml:space="preserve">
<style type="text/css">
	.st0{fill:#094D26;}
</style>
<g>
	<path class="st0" d="M22.6,20.6l-6.2-6.2c1.1-1.5,1.7-3.4,1.7-5.4c0-5-4.1-9.1-9.1-9.1C4.1,0,0,4.1,0,9.1c0,5,4.1,9.1,9.1,9.1
		c1.9,0,3.6-0.6,5-1.5l6.2,6.2c0.2,0.2,0.6,0.4,0.9,0.4c0.4,0,0.9-0.2,1.2-0.5c0.3-0.3,0.5-0.6,0.5-1C23,21.3,22.9,20.9,22.6,20.6z
		 M9.1,16c-3.8,0-6.9-3.1-6.9-6.9c0-3.8,3.1-6.9,6.9-6.9c3.8,0,6.9,3.1,6.9,6.9C16,12.9,12.9,16,9.1,16z"/>
</g>
</svg>
