<?xml version="1.0" encoding="UTF-8" standalone="no"?>
<svg
   height="24px"
   viewBox="0 -960 960 960"
   width="24px"
   fill="#e8eaed"
   version="1.1"
   id="svg1"
   sodipodi:docname="whatsapp.svg"
   inkscape:version="1.4 (e7c3feb100, 2024-10-09)"
   xmlns:inkscape="http://www.inkscape.org/namespaces/inkscape"
   xmlns:sodipodi="http://sodipodi.sourceforge.net/DTD/sodipodi-0.dtd"
   xmlns="http://www.w3.org/2000/svg"
   xmlns:svg="http://www.w3.org/2000/svg">
  <defs
     id="defs1" />
  <sodipodi:namedview
     id="namedview1"
     pagecolor="#ffffff"
     bordercolor="#000000"
     borderopacity="0.25"
     inkscape:showpageshadow="2"
     inkscape:pageopacity="0.0"
     inkscape:pagecheckerboard="0"
     inkscape:deskcolor="#d1d1d1"
     inkscape:zoom="17.125"
     inkscape:cx="10.160584"
     inkscape:cy="5.0218978"
     inkscape:window-width="1920"
     inkscape:window-height="1011"
     inkscape:window-x="0"
     inkscape:window-y="0"
     inkscape:window-maximized="1"
     inkscape:current-layer="svg1" />
  <path
     fill-rule="evenodd"
     d="m 761.50706,-763.07139 c -74.68984,-74.75232 -174.02136,-115.94063 -279.848,-115.98261 -218.05379,0 -395.522561,177.4009 -395.609871,395.45576 -0.0291,69.70182 18.188471,137.74129 52.806191,197.71387 L 82.73214,-80.946 292.45063,-135.94019 c 57.78124,31.5053 122.83877,48.10899 189.05007,48.13701 h 0.16261 c 218.03117,0 395.51617,-177.42353 395.60452,-395.47939 0.0418,-105.67269 -41.06877,-205.03649 -115.76077,-279.78882 m -279.84375,608.47301 h -0.13464 c -59.00079,-0.0227 -116.87142,-15.86788 -167.35485,-45.81751 l -12.00786,-7.12437 -124.44825,32.63536 33.21823,-121.29811 -7.81922,-12.43552 C 170.20229,-360.975 152.8175,-421.46568 152.84336,-483.5735 c 0.0722,-181.23831 147.5784,-328.68638 328.95033,-328.68638 87.82463,0.0334 170.38323,34.26969 232.46407,96.40117 62.08084,62.13146 96.25031,144.71923 96.21692,232.55022 -0.0749,181.25131 -147.57944,328.71011 -328.81137,328.71011 M 662.02368,-400.7822 c -9.88556,-4.94592 -58.48368,-28.85286 -67.54504,-32.15055 -9.06029,-3.29767 -15.64924,-4.94601 -22.24029,4.94702 -6.58895,9.89203 -25.53263,32.15064 -31.30056,38.74499 -5.76477,6.59535 -11.53062,7.42056 -21.41618,2.47346 -9.88447,-4.94593 -41.73448,-15.37988 -79.49146,-49.04626 -29.38407,-26.20052 -49.22407,-58.56333 -54.98991,-68.45536 -5.76585,-9.89302 -0.613,-15.242 4.33516,-20.16755 4.44611,-4.42774 9.88443,-11.54137 14.82725,-17.3126 4.94166,-5.77013 6.58888,-9.89194 9.88332,-16.48628 3.29559,-6.59536 1.6483,-12.36659 -0.82303,-17.3126 -2.47141,-4.94601 -22.23924,-53.58503 -30.47753,-73.37008 -8.02284,-19.26905 -16.17281,-16.66191 -22.2403,-16.96357 -5.75937,-0.28656 -12.35585,-0.34803 -18.94475,-0.34803 -6.59,0 -17.29862,2.47355 -26.35999,12.36558 -9.0603,9.89303 -34.59506,33.79998 -34.59506,82.43799 0,48.63792 35.4192,95.62651 40.36198,102.22194 4.94168,6.59537 69.70182,106.40842 168.86097,149.21164 23.58369,10.18068 41.99625,16.26003 56.35163,20.81709 23.68069,7.51868 45.22932,6.45747 62.26177,3.91398 18.99114,-2.8366 58.48259,-23.90585 66.72093,-46.98867 8.23718,-23.08273 8.23718,-42.8678 5.76585,-46.98959 -2.47033,-4.12189 -9.06037,-6.59544 -18.94476,-11.54255"
     clip-rule="evenodd"
     id="path1-7"
     style="fill:#e8eaed;fill-opacity:1;stroke-width:1.07732" />
</svg>
