<?xml version="1.0" encoding="utf-8"?>
<!-- Generator: Adobe Illustrator 24.0.0, SVG Export Plug-In . SVG Version: 6.00 Build 0)  -->
<svg version="1.1" id="Layer_1" xmlns="http://www.w3.org/2000/svg" xmlns:xlink="http://www.w3.org/1999/xlink" x="0px" y="0px"
	 viewBox="0 0 14 14" style="enable-background:new 0 0 14 14;" xml:space="preserve">
<style type="text/css">
	.st0{fill-rule:evenodd;clip-rule:evenodd;fill:#211E55;}
	.st1{fill:#CB1B45;}
</style>
<path class="st1" d="M8.6,7l3.5-3.5c0.4-0.4,0.4-1.2,0-1.6c-0.5-0.4-1.2-0.4-1.6,0L7,5.4L3.5,1.9c-0.4-0.4-1.2-0.4-1.6,0
	s-0.4,1.2,0,1.6L5.4,7l-3.5,3.5c-0.4,0.4-0.4,1.2,0,1.6c0.2,0.2,0.5,0.3,0.8,0.3s0.6-0.1,0.8-0.3L7,8.6l3.5,3.5
	c0.2,0.2,0.5,0.3,0.8,0.3c0.3,0,0.6-0.1,0.8-0.3c0.4-0.4,0.4-1.2,0-1.6L8.6,7z"/>
</svg>
